<?xml version="1.0" encoding="utf-8"?>
<!-- Generator: Adobe Illustrator 18.1.1, SVG Export Plug-In . SVG Version: 6.00 Build 0)  -->
<svg version="1.1" id="Layer_1" xmlns="http://www.w3.org/2000/svg" xmlns:xlink="http://www.w3.org/1999/xlink" x="0px" y="0px"
	 viewBox="0 0 500 250" enable-background="new 0 0 500 250" xml:space="preserve">
<g>
	<g>
		<path fill="#0073B6" d="M221.1,128c-12.9,0-19.2-6.6-19.2-20.1V59.2l30.9,0.2l-0.2,68.6H221.1z"/>
		<path fill="#0073B6" d="M209.3,54.2c-7.6,0-8.5-4.5-8.5-7.9v-9.6l22.8,0.2c6,0,9,2.7,9,8.1c0,0,0,7.5,0,9.2H209.3z"/>
		<path fill="#0073B6" d="M267.8,129.8c-18.6,0-28-8.2-28-24.4V37l30.9,0.2l-0.2,22.4l17.4,0.2l-0.2,21.9l-17.1-0.2l-0.2,17.6
			c0,5,2.4,7.2,7.7,7.2c2.9,0,6.2-0.7,9.5-2.2l-0.2,21.9C282.6,128.4,275.2,129.8,267.8,129.8z"/>
		<path fill="#0073B6" d="M59.4,129.9c-29.1,0-52-20.1-52-45.6c0-26,22.9-46.2,52.2-46.2c29.1,0,52,20.1,52,45.7
			c0,9.3-2.9,18.1-8.5,25.5l9.9,7.9l-5.4,6.4c-2.6,3.2-5.1,4.7-7.7,4.7h0c-2.7,0-4.9-1.6-7-3.3l-3.7-3
			C80.4,127.1,70.1,129.9,59.4,129.9z M59.4,63.9c-12.5,0-20,10.3-20,20.3c0,10.2,7.1,20.7,20.3,20.7c2.2,0,4.4-0.3,6.6-1
			c0.1,0,0.1-0.1,0.1-0.1c0-0.1,0-0.1-0.1-0.1L54,94.1l5.8-6.6c2.2-2.6,5.1-4,7.9-4c2.2,0,4.4,0.9,6.5,2.6l4.9,4
			c0.7-2.1,0.9-3.8,0.9-5.4C79.9,74.3,72.2,63.9,59.4,63.9z"/>
		<path fill="#0073B6" d="M141,129.6c-15.7,0-25.4-9.6-25.4-25V59.2l30.9,0.2l-0.2,36.1c0,5.6,3.6,9.5,8.6,9.5c4.5,0,9-3.3,9-9.5
			V59.2l30.9,0.2l-0.2,68.7l-17.2-0.2c-4.9,0-8.5-1.2-10.9-3.6c-2.7-2.7-2.6-6-2.6-6l0-1.6c0-0.1,0-0.1-0.1-0.1c0,0,0,0-0.1,0
			c0,0-0.1,0-0.1,0.1C159,122.3,151.6,129.6,141,129.6z"/>
	</g>
	<g>
		<path fill="#0073B6" d="M367.8,78L329,117.1l-23.5-23.5l11.9-11.9L329,93.2l27.3-27.5c-7.1-4.8-16.1-7.6-26-7.6
			c-23.5,0-42,15.8-42,36.2c0,20,18.3,35.7,41.7,35.7c23.5,0,42-15.8,42-36.2C372,88.1,370.5,82.7,367.8,78z"/>
	</g>
</g>
<g>
	<g>
		<path fill="#244084" d="M165.4,194.9V144h22.1c4.6,0,8.5,0.7,11.8,2.2c3.3,1.5,5.8,3.6,7.6,6.4c1.8,2.8,2.7,6.1,2.7,9.9
			c0,3.8-0.9,7.1-2.7,9.8c-1.8,2.8-4.3,4.9-7.6,6.4c-3.3,1.5-7.2,2.2-11.8,2.2H172l5.2-5.3v19.4H165.4z M177.2,176.9l-5.2-5.6h14.8
			c3.6,0,6.4-0.8,8.2-2.3c1.8-1.6,2.7-3.7,2.7-6.5c0-2.8-0.9-5-2.7-6.6c-1.8-1.6-4.5-2.3-8.2-2.3H172l5.2-5.6V176.9z"/>
		<path fill="#244084" d="M208.7,194.9l22.7-50.9h11.6l22.8,50.9h-12.4l-18.6-45h4.7l-18.7,45H208.7z M220.1,184l3.1-9h26.2l3.2,9
			H220.1z"/>
		<path fill="#244084" d="M271.2,194.9V144h22.1c4.6,0,8.5,0.7,11.8,2.2c3.3,1.5,5.8,3.6,7.6,6.4c1.8,2.8,2.7,6.1,2.7,9.9
			c0,3.8-0.9,7-2.7,9.8c-1.8,2.7-4.3,4.8-7.6,6.3c-3.3,1.5-7.2,2.2-11.8,2.2h-15.5l5.2-5.2v19.4H271.2z M283,176.9l-5.2-5.5h14.8
			c3.6,0,6.4-0.8,8.2-2.4c1.8-1.6,2.7-3.7,2.7-6.5c0-2.8-0.9-5-2.7-6.6c-1.8-1.6-4.5-2.3-8.2-2.3h-14.8l5.2-5.6V176.9z M303.6,194.9
			l-12.7-18.5h12.6l12.9,18.5H303.6z"/>
		<path fill="#244084" d="M324.7,194.9V144h11.7v50.9H324.7z M335.2,183.3l-0.7-13.6L359,144h13.1l-22,23.7l-6.6,7L335.2,183.3z
			 M359.5,194.9l-18.1-22.2l7.7-8.4l24.2,30.6H359.5z"/>
	</g>
</g>
<g>
	<path fill="#244084" d="M470,56.9c-3.4-2.2-7.1-4-11.1-5.4c-5.9-2.1-12.3-3.3-18.9-3.3c-27.7,0-50.5,20-52.8,45.4
		C387,95,387,96.5,387,98c0,2.3,0.2,4.7,0.5,6.9c0.2,1.8,0.5,3.7,0.9,5.5c0.3,1.4,0.7,2.9,1.2,4.3c3.4,10.7,9.7,20.4,16.4,29.5
		c4.2,5.8,8.5,11.4,13.1,16.9c3.9,4.7,7.9,9.3,12,13.8c3,3.3,6,6.4,9.1,9.6l0,0l0,0l0,0l0,0c12.3-12.6,23.7-26.1,34.1-40.3
		c4.4-6,8.6-12.3,12-18.9c2.4-4.7,4.3-9.7,5.5-14.9c0.5-2.2,0.9-4.5,1.1-6.8c0-0.2,0-0.5,0.1-0.7c0.2-1.6,0.3-3.3,0.3-4.9
		C493,80.9,483.9,65.9,470,56.9z"/>
	<path fill="#579ED3" d="M465.3,51.3c-3.4-2.2-7.1-4-11.1-5.4c-5.9-2.1-12.3-3.3-18.9-3.3c-27.7,0-50.5,20-52.8,45.4
		c-0.1,1.4-0.2,2.9-0.2,4.4c0,2.3,0.2,4.7,0.5,6.9c0.2,1.8,0.5,3.7,0.9,5.5c0.3,1.4,0.7,2.9,1.2,4.3c3.4,10.7,9.7,20.4,16.4,29.5
		c4.2,5.8,8.5,11.4,13.1,16.9c3.9,4.7,7.9,9.3,12,13.8c3,3.3,6,6.4,9.1,9.6l0,0l0,0l0,0l0,0c12.3-12.6,23.7-26.1,34.1-40.3
		c4.4-6,8.6-12.3,12-18.9c2.4-4.7,4.3-9.7,5.5-14.9c0.5-2.2,0.9-4.5,1.1-6.8c0-0.2,0-0.5,0.1-0.7c0.2-1.6,0.3-3.3,0.3-4.9
		C488.4,75.3,479.2,60.3,465.3,51.3z"/>
	<ellipse fill="#DEE8F6" cx="435.3" cy="96.4" rx="42.8" ry="39.4"/>
	<path fill="#0073B6" d="M436.5,138.3c-0.4,0-0.7,0-1.1,0c-22.7,0-41.5-15.3-45-35.3c-2.1,1.7-3.9,3.7-5.5,5.9
		c3.4,10.7,9.7,20.4,16.4,29.5c4.2,5.8,8.5,11.4,13.1,16.9C424.2,153.7,432.4,147.2,436.5,138.3z"/>
	<path fill="#6AB1E1" d="M465.3,51.3c-0.5,0-1,0-1.5,0c-6,0-11.6,1.8-16.2,4.8c19.2,4.9,33.3,21.1,33.3,40.4c0,3.3-0.4,6.5-1.2,9.5
		c3.3-2.1,6.1-4.8,8.4-8c0-0.2,0-0.5,0.1-0.7c0.2-1.6,0.3-3.3,0.3-4.9C488.4,75.3,479.2,60.3,465.3,51.3z"/>
	<path fill="#0073B6" d="M426.3,169.2c3,3.3,6,6.4,9.1,9.6l0,0l0,0l0,0l0,0c12.3-12.6,23.7-26.1,34.1-40.3c4.4-6,8.6-12.3,12-18.9
		C467.6,140.4,448.5,157.7,426.3,169.2z"/>
	<path fill="#0073B6" d="M428.9,46.9c8.4-1.5,16.9-1.6,25.3-1c-5.9-2.1-12.3-3.3-18.9-3.3c-27.7,0-50.5,20-52.8,45.4
		c2.3-8.7,6.3-17,12.3-23.6C403.6,54.7,416.1,49.1,428.9,46.9z"/>
	<path fill="#0073B6" d="M389.8,96.4c0,2.3,0.2,4.5,0.6,6.6c3.4,20,22.3,35.3,45,35.3c0.4,0,0.8,0,1.1,0
		c21.1-0.5,38.6-14.1,43.2-32.3c0.8-3.1,1.2-6.2,1.2-9.5c0-19.2-14.1-35.4-33.3-40.4c-3.9-1-8-1.5-12.2-1.5
		C410.2,54.6,389.8,73.3,389.8,96.4z M478.1,96.4c0,21.7-19.2,39.4-42.8,39.4c-23.6,0-42.8-17.6-42.8-39.4
		c0-21.7,19.2-39.4,42.8-39.4C459,57,478.1,74.7,478.1,96.4z"/>
	<path fill="#579ED3" d="M396.6,96.7c0,19.8,17.4,35.9,38.8,35.9s38.8-16.1,38.8-35.9c0-19.8-17.4-35.9-38.8-35.9
		S396.6,77,396.6,96.7z M435.3,62.8c20.3,0,36.9,15.2,36.9,34c0,18.7-16.5,34-36.9,34c-20.3,0-36.9-15.2-36.9-34
		C398.5,78,415,62.8,435.3,62.8z"/>
	<path fill="#FFFFFF" d="M435.3,130.7c20.3,0,36.9-15.2,36.9-34c0-18.7-16.5-34-36.9-34c-20.3,0-36.9,15.2-36.9,34
		C398.5,115.5,415,130.7,435.3,130.7z M435.3,64.3c19.5,0,35.4,14.6,35.4,32.5c0,17.9-15.9,32.5-35.4,32.5S400,114.6,400,96.7
		C400,78.8,415.8,64.3,435.3,64.3z"/>
	<g>
		<g>
			<path fill="#FFFFFF" d="M455.5,114h-4.8c-1.8,0-3.2-1.4-3.2-3.2v-2.3h-24.2v2.3c0,1.8-1.4,3.2-3.2,3.2h-4.8
				c-1.8,0-3.2-1.4-3.2-3.2V108c-0.8-0.5-1.3-1.4-1.3-2.4v-7.5c0-1.1,0.4-2.1,1.1-2.8l2.8-3h-0.4c-0.9,0-1.7-0.5-2.2-1.3
				c-0.5-0.8-0.5-1.7,0-2.5l0.8-1.4c0.4-0.8,1.3-1.3,2.2-1.3h2.9c0.2,0,0.5,0,0.7,0.1l2.2-5.4c0.4-1,1.4-1.6,2.4-1.6h24
				c1.1,0,2,0.6,2.4,1.6l2.2,5.5c0.2-0.1,0.5-0.1,0.8-0.1h2.9c0.9,0,1.8,0.5,2.2,1.3l0.8,1.4c0.4,0.8,0.4,1.8,0,2.5
				c-0.5,0.8-1.3,1.3-2.2,1.3H456l2.8,3c0.7,0.8,1.1,1.8,1.1,2.8v7.5c0,1-0.5,1.8-1.2,2.3v2.8C458.7,112.6,457.3,114,455.5,114z
				 M451.2,110.3h3.8v-5.5h1.2v-6.6c0-0.1,0-0.2-0.1-0.3l0,0l-4.7-5l-0.4,0.4l-0.7-1.6l-0.6-0.7l0.2-0.2l-3.4-8.2h-22.5l-3.3,8.1
				l0.3,0.3l-0.7,0.7l-0.6,1.5l-0.4-0.4l-4.7,5.1c-0.1,0.1-0.1,0.2-0.1,0.3v6.6h1.3v5.5h3.8v-5.5h31.6V110.3z"/>
		</g>
		<g>
			<path fill="#002C46" d="M451.9,90.6h-33.2l-5.5,6c-0.4,0.4-0.6,1-0.6,1.6v7.5c0,0.5,0.4,1,1,1h43.6c0.5,0,1-0.4,1-1v-7.5
				c0-0.6-0.2-1.2-0.6-1.6L451.9,90.6z"/>
			<path fill="#002C46" d="M451.9,90.6h-33.2l3.9-9.5c0.1-0.3,0.4-0.5,0.7-0.5h24c0.3,0,0.6,0.2,0.7,0.5L451.9,90.6z"/>
			<path fill="#FFFFFF" d="M448.5,89.1h-26.4c-0.5,0-0.9-0.5-0.7-1l2.2-5.4c0.1-0.3,0.4-0.5,0.7-0.5h21.9c0.3,0,0.6,0.2,0.7,0.5
				l2.2,5.4C449.4,88.5,449,89.1,448.5,89.1z"/>
			<path fill="#002C46" d="M417.9,112.1h-0.5c-2,0-3.5-1.6-3.5-3.5v-0.7c0-2,1.6-3.5,3.5-3.5h0.5c2,0,3.5,1.6,3.5,3.5v0.7
				C421.4,110.5,419.8,112.1,417.9,112.1z"/>
			<path fill="#002C46" d="M453.3,112.1h-0.5c-2,0-3.5-1.6-3.5-3.5v-0.7c0-2,1.6-3.5,3.5-3.5h0.5c2,0,3.5,1.6,3.5,3.5v0.7
				C456.9,110.5,455.3,112.1,453.3,112.1z"/>
			<rect x="423.5" y="104.2" fill="#FFFFFF" width="24.2" height="0.6"/>
			<g>
				<polygon fill="#FFFFFF" points="444.7,98.4 426.6,98.4 427.3,97.2 443.9,97.2 				"/>
				<polygon fill="#FFFFFF" points="445.9,100.4 425.3,100.4 426,99.2 445.2,99.2 				"/>
				<polygon fill="#FFFFFF" points="447.2,102.4 424,102.4 424.7,101.2 446.5,101.2 				"/>
			</g>
			<path fill="#FFFFFF" d="M420.5,99.8h-5.4c-0.2,0-0.5-0.2-0.5-0.5v-1.7c0-0.2,0.2-0.5,0.5-0.5h6.4c0.4,0,0.6,0.4,0.4,0.7l-1,1.7
				C420.8,99.7,420.7,99.8,420.5,99.8z"/>
			<path fill="#FFFFFF" d="M449.3,99.8h5.4c0.2,0,0.5-0.2,0.5-0.5v-1.7c0-0.2-0.2-0.5-0.5-0.5h-6.4c-0.4,0-0.6,0.4-0.4,0.7l1,1.7
				C449,99.7,449.1,99.8,449.3,99.8z"/>
			<g>
				<path fill="#002C46" d="M455.7,87.6h-2.9c-0.4,0-0.7,0.3-0.7,0.7v1.4c0,0.4,0.3,0.7,0.7,0.7h3.7c0.5,0,0.9-0.6,0.6-1l-0.8-1.4
					C456.2,87.7,455.9,87.6,455.7,87.6z"/>
				
					<rect x="450.4" y="90" transform="matrix(-0.7071 0.7071 -0.7071 -0.7071 835.3683 -164.8102)" fill="#002C46" width="2.8" height="1.2"/>
			</g>
			<g>
				<path fill="#002C46" d="M415.1,87.6h2.9c0.4,0,0.7,0.3,0.7,0.7v1.4c0,0.4-0.3,0.7-0.7,0.7h-3.7c-0.5,0-0.9-0.6-0.6-1l0.8-1.4
					C414.6,87.7,414.8,87.6,415.1,87.6z"/>
				
					<rect x="417.5" y="90" transform="matrix(0.7071 0.7071 -0.7071 0.7071 186.7772 -269.7093)" fill="#002C46" width="2.8" height="1.2"/>
			</g>
			<path fill="#002C46" d="M430.4,81.9h9.8l-0.5,0.9c-0.1,0.2-0.3,0.3-0.5,0.3h-7.7c-0.2,0-0.4-0.1-0.5-0.3L430.4,81.9z"/>
		</g>
	</g>
</g>
</svg>
