<?xml version="1.0" encoding="utf-8"?>
<!-- Generator: Adobe Illustrator 18.1.1, SVG Export Plug-In . SVG Version: 6.00 Build 0)  -->
<svg version="1.1" id="Layer_1" xmlns="http://www.w3.org/2000/svg" xmlns:xlink="http://www.w3.org/1999/xlink" x="0px" y="0px"
	 viewBox="0 0 150 150" enable-background="new 0 0 150 150" xml:space="preserve">
<circle fill="#09723B" cx="74.9" cy="75" r="67.2"/>
<circle fill="#FFFFFF" cx="74.4" cy="75" r="51.2"/>
<path fill="#24AE5F" d="M110.8,51c-3.3-3.6-9.6-4.8-13.4-1.1C91,56.3,84.3,62.4,77.5,68.4c-3.3,2.9-6.7,5.8-10.2,8.7
	c-1.6,1.3-3.1,2.6-4.7,3.9c-0.4-0.5-0.9-1-1.3-1.4c-2.3-2.5-4.4-5.2-6.4-7.9c-3-4-9.8-4.4-13.4-1.1c-4,3.7-4.3,9.1-1.1,13.4
	c4.3,5.7,9.1,11.8,14.8,16.2c4.7,3.7,10.3,2.7,14.7-0.8c2.8-2.2,5.6-4.4,8.3-6.7c10.9-9,21.3-18.4,31.4-28.2
	C113.3,61,114.5,55,110.8,51z"/>
</svg>
