<?xml version="1.0" encoding="utf-8"?>
<!-- Generator: Adobe Illustrator 18.1.1, SVG Export Plug-In . SVG Version: 6.00 Build 0)  -->
<svg version="1.1" id="Layer_1" xmlns="http://www.w3.org/2000/svg" xmlns:xlink="http://www.w3.org/1999/xlink" x="0px" y="0px"
	 viewBox="0 0 150 150" enable-background="new 0 0 150 150" xml:space="preserve">
<circle fill="#0173B7" cx="74.9" cy="75" r="67.2"/>
<circle fill="#FFFFFF" cx="74.4" cy="75" r="51.2"/>
<path fill="#FDFDFC" d="M91,59.7V44.8h-2v14.9c0,6.3-4.2,11.8-10.3,13.5c-0.4,0.1-0.7,0.5-0.7,0.9s0.3,0.8,0.7,0.9
	C84.8,76.7,89,82.2,89,88.5v14.9h2V88.5c0-6.2-3.7-11.8-9.2-14.4C87.3,71.5,91,65.9,91,59.7L91,59.7z"/>
<path fill="#FDFDFC" d="M71.4,73.1c-6.1-1.7-10.3-7.2-10.3-13.5V44.8h-2v14.9c0,6.2,3.7,11.8,9.2,14.4c-5.5,2.6-9.2,8.2-9.2,14.4
	v14.9h2V88.5c0-6.3,4.2-11.8,10.3-13.5c0.4-0.1,0.7-0.5,0.7-0.9S71.8,73.2,71.4,73.1L71.4,73.1z"/>
<g>
	<path fill="#0173B7" d="M90.8,58.3V42.1H58.2v16.2c0,7.5,5.1,13.9,12,15.7c-6.9,1.9-12,8.2-12,15.7v16.2h32.6V89.8
		c0-7.5-5.1-13.9-12-15.7C85.7,72.2,90.8,65.8,90.8,58.3L90.8,58.3z"/>
	<path fill="#70CDDD" d="M76.2,84.3v-14c0.9-0.1,1.6-0.3,2.1-0.4c4.1-1.1,7.1-4.2,8.3-8.1l-23.1,0c1.2,3.9,4.3,7,8.3,8.1
		c0.6,0.1,1.3,0.3,2.1,0.4v14c-6.2,0.5-11,5.7-11,12v5.4h24.1v-5.4C87.2,90.1,82.3,84.9,76.2,84.3L76.2,84.3z"/>
	<path fill="#234184" d="M95.2,42.1c0,2.6-2.1,4.5-4.7,4.5H58.3c-2.6,0-4.7-1.9-4.7-4.5c0-2.6,2.1-4.5,4.7-4.5h32.2
		C93.1,37.6,95.2,39.5,95.2,42.1L95.2,42.1z"/>
	<path fill="#234184" d="M95.2,106.1c0,2.6-2.1,4.5-4.7,4.5H58.3c-2.6,0-4.7-1.9-4.7-4.5c0-2.6,2.1-4.5,4.7-4.5h32.2
		C93.1,101.6,95.2,103.5,95.2,106.1L95.2,106.1z"/>
</g>
</svg>
