<?xml version="1.0" encoding="utf-8"?>
<!-- Generator: Adobe Illustrator 18.1.1, SVG Export Plug-In . SVG Version: 6.00 Build 0)  -->
<svg version="1.1" id="Layer_1" xmlns="http://www.w3.org/2000/svg" xmlns:xlink="http://www.w3.org/1999/xlink" x="0px" y="0px"
	 viewBox="0 0 150 150" enable-background="new 0 0 150 150" xml:space="preserve">
<circle fill="#A71E22" cx="74.9" cy="75" r="67.2"/>
<circle fill="#FFFFFF" cx="74.4" cy="75" r="51.2"/>
<path fill="#ED1C24" d="M87.2,75c3.9-3.9,7.8-7.8,11.7-11.7c3.6-3.6,4-8.8,0.7-12.8c-3-3.7-9.5-4.1-12.8-0.7
	c-4.1,4.1-8.3,8.3-12.4,12.4C70.3,58,66.2,53.9,62,49.7c-3.4-3.4-9.8-2.9-12.8,0.7c-3.3,4-2.9,9.2,0.7,12.8
	c3.9,3.9,7.8,7.8,11.7,11.7c-3.9,3.9-7.8,7.8-11.7,11.7c-3.6,3.6-4,8.8-0.7,12.8c3,3.7,9.5,4.1,12.8,0.7c4.1-4.1,8.3-8.3,12.4-12.4
	c4.1,4.1,8.3,8.3,12.4,12.4c3.4,3.4,9.8,2.9,12.8-0.7c3.3-4,2.9-9.2-0.7-12.8C95,82.8,91.1,78.9,87.2,75z"/>
</svg>
