<?xml version="1.0" encoding="utf-8"?>
<!-- Generator: Adobe Illustrator 18.1.1, SVG Export Plug-In . SVG Version: 6.00 Build 0)  -->
<svg version="1.1" id="Layer_1" xmlns="http://www.w3.org/2000/svg" xmlns:xlink="http://www.w3.org/1999/xlink" x="0px" y="0px"
	 viewBox="0 0 750 750" enable-background="new 0 0 750 750" xml:space="preserve">
<g opacity="0.41">
	<linearGradient id="SVGID_1_" gradientUnits="userSpaceOnUse" x1="259.1429" y1="114.2386" x2="232.8707" y2="205.8607">
		<stop  offset="0" style="stop-color:#DAE9EC"/>
		<stop  offset="1" style="stop-color:#CEE1E5"/>
	</linearGradient>
	<path fill="url(#SVGID_1_)" d="M125.5,149.3c9.3-2.5,18-1.4,21.8,2.2c2.8-4,8.8-7.7,16.2-9.7c5-1.3,9.7-1.7,13.7-1.1
		c1.6-2.3,4.6-4.4,8.3-5.4c3.3-0.9,6.6-0.8,9.1,0.1c3.1-3.8,7.7-6.4,13-6.7c1.2-0.1,2.4,0,3.6,0.1c4.6-10.3,14.6-17.7,26.6-18.5
		c14.5-0.9,27.3,8.2,31.6,21.3c1.8-0.7,3.7-1.2,5.7-1.3c7.7-0.5,14.5,3.8,17.6,10.4c2.7-1,6.3-1.4,10.2-0.9c3.5,0.5,6.7,1.6,8.9,3.1
		c3.9-1.1,8.9-1.5,14.1-0.7c7.6,1,13.9,4,17.3,7.6c3.3-4.1,11.8-6.3,21.3-4.9c11.7,1.6,20.5,7.8,19.7,13.8c-0.8,6-11,9.6-22.7,8
		c-3.5-0.5-6.7-1.4-9.5-2.5c-0.9,5.7-10,10.1-21.3,10.2c-5.7,0-10.8-1.1-14.7-3c-3.8,1.9-9,3-14.7,3c-4.1,0-8-0.6-11.2-1.6
		c-6.5,6.6-17.3,11.3-29.8,12.1c-15.6,1-29.3-4.4-35.7-12.9c-2.8,1.7-6.1,3.1-9.8,4.1c-9.4,2.5-18.2,1.4-21.9-2.3
		c-2.7,4.2-8.8,8.2-16.5,10.2c-9.7,2.6-18.8,1.3-22.2-2.7c-3.1,0.2-6.6-0.1-10.2-0.9c-7.5-1.6-13.6-5.1-16.6-8.9
		c-9.8,1.6-18.2-0.7-19.6-5.9C106.1,159.6,114.1,152.3,125.5,149.3z"/>
	<linearGradient id="SVGID_2_" gradientUnits="userSpaceOnUse" x1="567.6468" y1="164.8558" x2="551.6823" y2="220.5307">
		<stop  offset="0" style="stop-color:#DAE9EC"/>
		<stop  offset="1" style="stop-color:#CEE1E5"/>
	</linearGradient>
	<path fill="url(#SVGID_2_)" d="M486.4,186.1c5.6-1.5,10.9-0.9,13.2,1.3c1.7-2.4,5.3-4.7,9.8-5.9c3-0.8,5.9-1,8.3-0.7
		c1-1.4,2.8-2.7,5.1-3.3c2-0.5,4-0.5,5.5,0.1c1.9-2.3,4.7-3.9,7.9-4.1c0.7,0,1.5,0,2.2,0.1c2.8-6.2,8.8-10.8,16.1-11.2
		c8.8-0.6,16.6,5,19.2,13c1.1-0.4,2.3-0.7,3.5-0.8c4.6-0.3,8.8,2.3,10.7,6.3c1.6-0.6,3.8-0.8,6.2-0.5c2.2,0.3,4,1,5.4,1.9
		c2.4-0.7,5.4-0.9,8.6-0.4c4.6,0.6,8.5,2.4,10.5,4.6c2-2.5,7.1-3.8,12.9-3c7.1,1,12.5,4.7,12,8.4c-0.5,3.7-6.7,5.8-13.8,4.9
		c-2.1-0.3-4.1-0.8-5.8-1.5c-0.5,3.4-6.1,6.2-12.9,6.2c-3.4,0-6.6-0.7-8.9-1.8c-2.3,1.1-5.5,1.8-8.9,1.8c-2.5,0-4.8-0.4-6.8-1
		c-3.9,4-10.5,6.9-18.1,7.3c-9.5,0.6-17.8-2.7-21.7-7.8c-1.7,1-3.7,1.9-5.9,2.5c-5.7,1.5-11.1,0.9-13.3-1.4c-1.6,2.5-5.3,5-10,6.2
		c-5.9,1.6-11.4,0.8-13.5-1.7c-1.9,0.1-4,0-6.2-0.5c-4.5-1-8.3-3.1-10.1-5.4c-6,1-11-0.4-11.9-3.6
		C474.7,192.4,479.5,188,486.4,186.1z"/>
	<linearGradient id="SVGID_3_" gradientUnits="userSpaceOnUse" x1="202.3582" y1="254.3873" x2="186.6692" y2="309.1013">
		<stop  offset="0" style="stop-color:#DAE9EC"/>
		<stop  offset="1" style="stop-color:#CEE1E5"/>
	</linearGradient>
	<path fill="url(#SVGID_3_)" d="M122.5,275.3c5.6-1.5,10.8-0.9,13,1.3c1.7-2.4,5.2-4.6,9.6-5.8c3-0.8,5.8-1,8.2-0.7
		c1-1.4,2.8-2.6,5-3.2c2-0.5,3.9-0.5,5.4,0.1c1.8-2.3,4.6-3.8,7.7-4c0.7,0,1.4,0,2.1,0.1c2.7-6.1,8.7-10.6,15.9-11
		c8.6-0.5,16.3,4.9,18.9,12.7c1.1-0.4,2.2-0.7,3.4-0.8c4.6-0.3,8.6,2.3,10.5,6.2c1.6-0.6,3.8-0.8,6.1-0.5c2.1,0.3,4,1,5.3,1.8
		c2.3-0.7,5.3-0.9,8.4-0.4c4.5,0.6,8.3,2.4,10.3,4.5c1.9-2.5,7-3.7,12.7-3c7,1,12.2,4.6,11.7,8.2c-0.5,3.6-6.5,5.7-13.5,4.8
		c-2.1-0.3-4-0.8-5.7-1.5c-0.5,3.4-6,6.1-12.7,6.1c-3.4,0-6.5-0.7-8.8-1.8c-2.3,1.1-5.4,1.8-8.7,1.8c-2.5,0-4.8-0.4-6.7-1
		c-3.9,3.9-10.3,6.7-17.8,7.2c-9.3,0.6-17.5-2.6-21.3-7.7c-1.6,1-3.6,1.9-5.8,2.4c-5.6,1.5-10.9,0.8-13.1-1.4
		c-1.6,2.5-5.3,4.9-9.9,6.1c-5.8,1.6-11.2,0.8-13.3-1.6c-1.9,0.1-3.9,0-6.1-0.5c-4.5-1-8.1-3-9.9-5.3c-5.9,1-10.9-0.4-11.7-3.5
		C111,281.5,115.7,277.1,122.5,275.3z"/>
</g>
<g>
	<path opacity="0.78" fill="#D5E6E9" d="M528.6,289.9c-0.8,1.1-1.5,2.2-2,3.5c-3.7,8.5,0.3,18.4,8.9,22c2.7,1.1,5.4,1.5,8.1,1.3
		c-0.7,7.1,3.3,14,10.2,17c4.9,2.1,10.2,1.7,14.5-0.6c1.8,3.1,4.5,5.6,8,7.1c8.6,3.6,18.5-0.3,22.1-8.8c0-0.1,0-0.1,0.1-0.2
		c7.9,2.1,16.4-1.9,19.7-9.6c3.6-8.3-0.1-17.9-8.2-21.7c0.4-0.7,0.8-1.4,1.1-2.1c3.7-8.5-0.3-18.4-8.9-22c-5-2.1-10.4-1.7-14.8,0.7
		c0.1-6.6-3.8-12.9-10.2-15.6c-8.5-3.6-18.2,0.2-22,8.5c-1.7-2.4-4.1-4.3-7-5.5c-8.6-3.6-18.5,0.3-22.1,8.8
		C523.6,278.6,524.7,285.2,528.6,289.9z"/>
	<path fill="#FFFFFF" d="M586.7,284.9h-30.4c-4.1,0-7.4,3.3-7.4,7.3v15.6c0,4,3.3,7.3,7.4,7.3h30.4c4.1,0,7.4-3.3,7.4-7.3v-15.6
		C594.1,288.2,590.8,284.9,586.7,284.9z M566.5,307.7v-15.3l13.1,7L566.5,307.7z"/>
</g>
<g>
	<g opacity="0.38">
		<g>
			<g>
				<path fill="#00507E" d="M235.5,273.5c-6.4,0-12.8-2.1-18.1-6.5c-12-9.9-13.5-27.7-3.6-39.6c2.6-3.1,65.1-76.5,160.6-81.4
					c62.7-3.2,123.5,23.5,180.8,79.3c11.1,10.8,11.3,28.6,0.5,39.7c-10.9,11.1-28.7,11.3-39.9,0.5c-45.4-44.2-91.9-65.6-138.1-63.4
					c-70.7,3.3-120.2,60.8-120.7,61.4C251.5,270,243.6,273.5,235.5,273.5z"/>
			</g>
			<path fill="#00507E" d="M291.1,339.9c-5.4,0-10.7-1.9-15.1-5.6c-9.6-8.3-10.6-22.8-2.3-32.4c1.9-2.2,48.2-54.4,112.5-54.7
				c0.1,0,0.3,0,0.5,0c38.7,0,74.5,18.3,106.6,54.5c8.4,9.5,7.5,24-2,32.4c-9.6,8.4-24.1,7.5-32.6-2c-22.9-25.9-47.1-39-72-39
				c-0.1,0-0.2,0-0.3,0c-42.9,0.2-77.5,38.5-77.8,38.8C304,337.2,297.5,339.9,291.1,339.9z"/>
			<g>
				<path fill="#00507E" d="M419.2,349.7c19.8,37-17.5,74.2-54.6,54.4c-5.3-2.8-9.8-7.2-12.6-12.6c-19.8-37,17.5-74.2,54.6-54.4
					C411.9,340,416.3,344.4,419.2,349.7z"/>
			</g>
		</g>
	</g>
	<g>
		<g>
			<g>
				<path fill="#00507E" d="M230.7,267.7c-6.4,0-12.8-2.1-18.1-6.5c-12-9.9-13.5-27.7-3.6-39.6c2.6-3.1,65.1-76.5,160.6-81.4
					c62.7-3.2,123.5,23.5,180.8,79.3c11.1,10.8,11.3,28.6,0.5,39.7c-10.9,11.1-28.7,11.3-39.9,0.5c-45.4-44.2-91.9-65.6-138.1-63.4
					c-70.7,3.3-120.2,60.8-120.7,61.4C246.8,264.3,238.8,267.7,230.7,267.7z"/>
			</g>
			<g>
				<path fill="#00507E" d="M286.3,334.2c-5.4,0-10.8-1.9-15.1-5.6c-9.6-8.3-10.6-22.9-2.3-32.5c1.9-2.2,48.2-54.4,112.5-54.7
					c0.1,0,0.3,0,0.5,0c38.7,0,74.5,18.3,106.6,54.5c8.4,9.5,7.5,24-2,32.4c-9.6,8.4-24.1,7.5-32.6-2c-22.9-25.9-47.1-39-72-39
					c-43.2,0-77.8,38.5-78.1,38.9C299.1,331.5,292.7,334.2,286.3,334.2z"/>
			</g>
			<path fill="#00507E" d="M414.4,344c19.8,37-17.5,74.2-54.6,54.4c-5.3-2.8-9.8-7.2-12.6-12.6c-19.8-37,17.5-74.2,54.6-54.4
				C407.1,334.3,411.5,338.7,414.4,344z"/>
		</g>
	</g>
</g>
<g>
	<path opacity="0.78" fill="#D5E6E9" d="M502.9,503.1c0.8,1.1,1.5,2.2,2,3.5c3.7,8.5-0.3,18.4-8.9,22c-2.7,1.1-5.4,1.5-8.1,1.3
		c0.7,7.1-3.3,14-10.2,17c-4.9,2.1-10.2,1.7-14.5-0.6c-1.8,3.1-4.5,5.6-8,7.1c-8.6,3.6-18.5-0.3-22.1-8.8c0-0.1,0-0.1-0.1-0.2
		c-7.9,2.1-16.4-1.9-19.7-9.6c-3.6-8.3,0.1-17.9,8.2-21.7c-0.4-0.7-0.8-1.4-1.1-2.1c-3.7-8.5,0.3-18.4,8.9-22
		c5-2.1,10.4-1.7,14.8,0.7c-0.1-6.6,3.8-12.9,10.2-15.6c8.5-3.6,18.2,0.2,22,8.5c1.7-2.4,4.1-4.3,7-5.5c8.6-3.6,18.5,0.3,22.1,8.8
		C507.9,491.8,506.7,498.4,502.9,503.1z"/>
	<path fill="#FFFFFF" d="M483.2,498.6c-1.5,0.7-3.7,1.1-5.4,1.4c0.8-0.1,1.7-1.5,2.2-2.1c0.7-0.9,1.2-1.9,1.5-2.9
		c0-0.1,0-0.2-0.1-0.3c-0.1,0-0.2,0-0.3,0c-1.8,1-3.8,1.7-5.8,2.2c-0.2,0-0.3,0-0.4-0.1c-0.2-0.2-0.3-0.4-0.5-0.5
		c-0.9-0.7-1.8-1.3-2.8-1.7c-1.4-0.5-2.8-0.8-4.3-0.7c-1.4,0.1-2.8,0.5-4.1,1.1c-1.3,0.7-2.4,1.6-3.3,2.7c-0.9,1.1-1.6,2.5-2,3.9
		c-0.3,1.4-0.3,2.7-0.1,4.1c0,0.2,0,0.3-0.2,0.2c-7.9-1.2-14.5-4-19.9-10.1c-0.2-0.3-0.4-0.3-0.5,0c-2.3,3.5-1.2,9.1,1.7,11.9
		c0.4,0.4,0.8,0.7,1.2,1.1c-0.2,0-2.1-0.2-3.8-1.1c-0.2-0.1-0.3-0.1-0.4,0.2c0,0.4,0,0.7,0.1,1.1c0.4,3.5,2.9,6.8,6.3,8.1
		c0.4,0.2,0.8,0.3,1.3,0.4c-0.8,0.2-1.6,0.3-3.8,0.1c-0.3-0.1-0.4,0.1-0.3,0.3c1.7,4.5,5.2,5.8,7.9,6.6c0.4,0.1,0.7,0.1,1.1,0.1
		c0,0,0,0-0.1,0.1c-0.9,1.3-4,2.4-5.4,2.8c-2.6,0.9-5.4,1.3-8.2,1c-0.4-0.1-0.5-0.1-0.7,0c-0.1,0.1,0,0.2,0.1,0.3
		c0.6,0.4,1.1,0.7,1.7,1c1.7,0.9,3.6,1.7,5.5,2.2c9.8,2.7,20.9,0.7,28.3-6.6c5.8-5.7,7.8-13.7,7.8-21.6c0-0.3,0.4-0.5,0.6-0.6
		c1.5-1.1,3.7-2.5,4.8-4c0.3-0.3,1.2-0.6,1.2-0.8c0,0,0,0,0,0C484.4,498.5,483.4,498.5,483.2,498.6z"/>
</g>
<g>
	<path opacity="0.78" fill="#D5E6E9" d="M195,359.1c0.8,1.1,1.5,2.2,2,3.5c3.7,8.5-0.3,18.4-8.9,22c-2.7,1.1-5.4,1.5-8.1,1.3
		c0.7,7.1-3.3,14-10.2,17c-4.9,2.1-10.2,1.7-14.5-0.6c-1.8,3.1-4.5,5.6-8,7.1c-8.6,3.6-18.5-0.3-22.1-8.8c0-0.1,0-0.1-0.1-0.2
		c-7.9,2.1-16.4-1.9-19.7-9.6c-3.6-8.3,0.1-17.9,8.2-21.7c-0.4-0.7-0.8-1.4-1.1-2.1c-3.7-8.5,0.3-18.4,8.9-22
		c5-2.1,10.4-1.7,14.8,0.7c-0.1-6.6,3.8-12.9,10.2-15.6c8.5-3.6,18.2,0.2,22,8.5c1.7-2.4,4.1-4.3,7-5.5c8.6-3.6,18.5,0.3,22.1,8.8
		C200,347.8,198.9,354.5,195,359.1z"/>
	<g>
		<g>
			<g>
				<path fill="#FFFFFF" d="M126.4,387.4l4.9-10.7c-1.2-3.3-1.5-6.9-0.9-10.4c1.9-11.4,12.8-19.1,24.2-17.3
					c11.4,1.9,19.2,12.7,17.3,24.1c-1.9,11.4-12.7,19.1-24.2,17.3c-3.4-0.6-6.7-2-9.4-4.1L126.4,387.4z M139.5,382.2l0.6,0.5
					c2.4,2,5.2,3.3,8.2,3.8c9.3,1.5,18.1-4.7,19.6-14c1.5-9.2-4.8-18-14-19.5c-9.3-1.5-18.1,4.7-19.6,14c-0.5,3.1-0.2,6.2,1,9.1
					l0.3,0.8l-2.7,6L139.5,382.2z"/>
			</g>
		</g>
		<path fill-rule="evenodd" clip-rule="evenodd" fill="#FFFFFF" d="M158.5,374c-0.8-0.6-1.7-1.4-2.8-1.1c-0.8,0.2-1.5,1.3-2.1,1.8
			c-0.3,0.3-0.6,0.3-1,0c-2.6-1.6-4.5-3.8-5.6-6.7c-0.2-0.4-0.1-0.8,0.3-1.1c0.6-0.5,1.3-1,1.5-1.7c0.3-0.7,0-1.7-0.2-2.4
			c-0.3-0.9-0.5-2.2-1.3-2.8c-0.7-0.6-1.8-0.5-2.6,0c-1.4,0.8-2.2,2.2-2.4,3.7c-0.1,0.4-0.1,0.9-0.1,1.3c0.1,1,0.4,2.1,0.8,3
			c0.3,0.7,0.6,1.5,1,2.2c1.2,2.3,2.8,4.4,4.7,6.1c1,0.8,2.1,1.6,3.2,2.2c1.3,0.7,2.4,1.3,3.9,1.3c1.6,0,3.3-0.7,4.1-2.1
			c0.3-0.4,0.4-0.9,0.4-1.4C160.4,375.4,159.2,374.6,158.5,374z"/>
	</g>
</g>
<g>
	<g>
		<path fill-rule="evenodd" clip-rule="evenodd" fill="#48392C" d="M197.5,363.2c0,0-5.8-6.4-13.9,0.8c-8.1,7.2-9.5,5.8-6.8,16
			c2.6,10.3-4.8,8.7-5.1,16.7c-0.3,7.9,3.1,9.3,6.2,14.5c3.1,5.1,15.4,5.8,13.2-0.6c-2.2-6.4,12.9,2.8,22.3,1.2
			c9.3-1.6,7.6,0,10.7-6.8c3.1-6.8-4.5-7.6-4.2-14.3c0.3-6.7,4.4-14.2-0.5-20.5S203.6,355.9,197.5,363.2z"/>
		<g>
			<g>
				<path fill="#CEE1E5" d="M221.7,669.2l7.2,2.4c0,0,1.9,0,1.5-1.9c-0.4-1.9-8.5-7.3-10-12.4l-8.4-0.1c0,0-2.4,3.2-2.6,5.4
					c-0.2,2.2,2.8,3.3,2.8,3.3L221.7,669.2z"/>
				<path opacity="0.26" fill="#CEE1E5" d="M230.4,669.8c-0.4-1.9-8.5-7.3-10-12.4l-8.4-0.1c0,0-0.2,0.3-0.5,0.8l4.7,0.1
					c1.4,5,9.5,10.5,10,12.4c0,0.1,0,0.2,0,0.3l2.7,0.9C228.8,671.7,230.8,671.7,230.4,669.8z"/>
				<path fill="#F9AB7A" d="M211.9,646.8l0.1,10.5c0,0,1.8,1.7,3.9,1.3c2.1-0.4,4.5-1.2,4.5-1.2l0.3-9.3L211.9,646.8z"/>
				<path opacity="0.2" fill="#F9AB7A" d="M211.9,646.8l0,2.5l4.5,0.7l-0.2,8.6c2-0.4,4.2-1.1,4.2-1.1l0.3-9.3L211.9,646.8z"/>
			</g>
			<g>
				<polygon fill="#F9AB7A" points="183.3,646.4 184.6,657.4 192,657.2 191.9,647.5 				"/>
				<polygon opacity="0.2" fill="#F9AB7A" points="189.2,648.2 189.3,657.3 192,657.2 191.9,647.5 183.3,646.4 183.4,647.5 				"/>
				<path fill="#CEE1E5" d="M177.9,667c0,0,0.7,2.4,8.5,1.7c7.8-0.7,7.7-1,8.2-2.7c0.5-1.7-1.1-8-2.5-8.8l-1.3-0.2
					c0,0-0.5-1.2-2.6-1.5c-2.1-0.3-3.3,0.8-3.6,1.9c-0.3,1-1,3.3-3.5,5.5C178.6,665.1,177.5,664.7,177.9,667z"/>
				<path opacity="0.26" fill="#CEE1E5" d="M192,657.2l-1.3-0.2c0,0-0.3-0.7-1.4-1.2c1.1,2.1,2,6.3,1.6,7.7c-0.5,1.7-0.4,2-8.2,2.7
					c-2.2,0.2-3.9,0.1-5.1,0c0,0.2,0,0.5,0.1,0.8c0,0,0.7,2.4,8.5,1.7c7.8-0.7,7.7-1,8.2-2.7C195.1,664.3,193.5,658,192,657.2z"/>
			</g>
			<g>
				<path fill="#22376A" d="M172.5,519.2c0,0-2.3,19.6,1.9,59.9c4.2,40.2,7.9,73,7.9,73l10.3-0.5c0,0,9.8-67.8,10.8-97.3
					c0,0,5.1,44.4,6.1,67.3c0.9,22.9,0.9,29,0.9,29l10.8-0.5c0,0,12.2-57.5,11.7-89.8c-0.5-32.3-2.3-43-2.3-43L172.5,519.2z"/>
				<g opacity="0.22">
					<g>
						<path fill="#223669" d="M232.8,560.4c-0.5-32.3-2.3-43-2.3-43l-58,1.9c0,0,0,0.2-0.1,0.5l53.1-1.7c0,0,1.9,10.8,2.3,43
							c0.4,30.5-10.4,83.7-11.6,89.3l4.8-0.2C221.1,650.2,233.3,592.6,232.8,560.4z"/>
					</g>
				</g>
			</g>
		</g>
		<path fill="#ED9474" d="M264.6,469.3c0,0-3.6-4-11.5-0.9l3.1,4L264.6,469.3z"/>
		<path fill="#2AC1D6" d="M220,449.7c0,0,3.1,28.3,15.7,39.7c2.8,2.5,26.7-7.5,26.7-7.5l-5.7-11.9l-13.5,2.2c0,0-4-30.5-15.7-43.7
			L220,449.7z"/>
		<g opacity="0.26">
			<path fill="#C7B299" d="M235.7,489.4c-0.4-0.4-0.8-0.8-1.2-1.2C234.9,488.6,235.2,489,235.7,489.4z"/>
		</g>
		<path fill="#2AC1D6" d="M227.4,428.4c0,0-29.8-5.6-58.3-0.9c-0.3,0.1-0.6,0.4-0.5,0.7c0.7,6.1-3.6,97.7,2.4,101.3
			c0,0,36.5,9.1,61.7-0.7C232.7,528.8,233.4,442.4,227.4,428.4z"/>
		<g>
			<rect x="209.5" y="453.5" fill="#06BBCF" width="9.4" height="13.5"/>
			<polygon fill="#00A8BA" points="218.8,453.5 214.1,458.1 209.5,453.5 			"/>
		</g>
		<path fill="#EDA98F" d="M189.6,424.9c0,5,4,9.1,9.1,9.1l0,0c5.1,0,9.1-4.1,9.1-9.1v-11.6c0-5-4-9.1-9.1-9.1l0,0
			c-5.1,0-9.1,4.1-9.1,9.1V424.9z"/>
		<g>
			<path fill="#FFFFFF" d="M197.4,481.9c0,0.7,0.6,1.3,1.3,1.3s1.3-0.6,1.3-1.3c0-0.7-0.6-1.3-1.3-1.3S197.4,481.2,197.4,481.9z"/>
		</g>
		<path opacity="0.23" fill="#F4AE94" d="M198.7,404.2c-5.1,0-9.1,4.1-9.1,9.1v5.4c0.8,0.5,1.6,1,2.3,1.4c4.2,2.2,7.8,1.5,7.8,1.5
			c3.4-0.8,6-1.7,8.1-2.8v-5.5C207.8,408.3,203.8,404.2,198.7,404.2z"/>
		<g>
			<path fill="#06BBCF" d="M207.8,419.3l7.2,7.6l-6,15.9l-10.2-8.7C198.7,434.1,206.6,425.8,207.8,419.3z"/>
			<path opacity="0.4" fill="#06BBCF" d="M208.9,441.8l5.8-15.2l0.3,0.3l-6,15.9l-10.2-8.7c0,0,0.2-0.2,0.5-0.5L208.9,441.8z"/>
			<path fill="#06BBCF" d="M189.6,419.3l-7.2,7.6l6,15.9l10.2-8.7C198.7,434.1,190.8,425.8,189.6,419.3z"/>
			<path opacity="0.47" fill="#06BBCF" d="M188.5,442.1l9.8-8.4c0.2,0.3,0.4,0.4,0.4,0.4l-10.2,8.7l-6-15.9l0.2-0.2L188.5,442.1z"/>
		</g>
		<path fill="#F4AE94" d="M173.7,389.4c2.9-6.3,6.4,0.3,7,1.6c0.1-1.5,0.2-3,0.4-4.4c0.2-2,0.5-4,1-5.9c1.5-6,6.1-9.1,12-10.2
			c4.1-0.7,8.6-0.4,12.5,0.9c0,0,6.6,2.2,9.4,8.1c0.4,0.9,0.8,1.9,1,3c0.6,2.9,0.9,5.7,1,8.1c1.4-2.1,3.9-4.5,6,0.1
			c2.6,5.6-1.7,11-5.2,10.6c-0.5-0.1-0.9-0.3-1.3-0.7c-1,7,0.1,15.5-17.7,19.5c0,0-4,0.8-8.5-1.6c-4.5-2.4-11.3-7.6-11.3-14
			c0-1.8,0.1-3.6,0.1-5.4c-0.3,0.4-0.8,0.7-1.3,0.8C175.4,400.4,171.1,395,173.7,389.4z"/>
		<g>
			<path fill="#F4AE94" d="M185.1,482.9c0,0,3,0.5,4.6-0.6c1.6-1.1,2.5-1.5,6.9-1.8c4.4-0.2,6.7-2,6.7-2s1.6,4-5.2,4.6
				c-4.2,0.4,7.3,5.3,10.9,6.4c0,0,1.5,2.2-2.4,2.6c-4,0.4-0.8,2-8.5,2.3c-7.6,0.3-16-1.5-15.9-6.8
				C182.4,482.1,185.1,482.9,185.1,482.9z"/>
			<g>
				<g>
					<polygon fill="#F0A98F" points="158.6,449.9 158.6,449.9 158.6,449.9 					"/>
				</g>
				<g>
					<g>
						<path fill="#2AC1D6" d="M172.7,444.4c-0.5,6-9.7,29-9.7,29c3.6,0.7,23.8,6.7,23.8,6.7l-1.1,14.5c-1.2-0.1-34.1-4.2-36.2-12.8
							c-6.1-25.2,19.1-54.1,19.1-54.1C174,428.8,172.7,444.4,172.7,444.4z"/>
					</g>
				</g>
				<path opacity="0.26" fill="#2AC1D6" d="M185.4,480.8c0,0-20.3-6-23.8-6.7c0,0,9.2-23,9.7-29c0,0,1.1-14.3-3.4-16.4
					c0.5-0.6,0.8-0.9,0.8-0.9c5.3,1.1,4,16.7,4,16.7c-0.5,6-9.7,29-9.7,29c3.6,0.7,23.8,6.7,23.8,6.7l-1.1,14.5
					c-0.1,0-0.6-0.1-1.4-0.2L185.4,480.8z"/>
			</g>
		</g>
		<g>
			<path fill="#4C2E15" d="M203.5,385c0,0,0.6-0.6,1.6-1.2c0.5-0.3,1.2-0.6,1.9-0.8c0.4-0.1,0.8-0.2,1.2-0.2c0.4,0,0.8-0.1,1.2-0.1
				c0.4,0,0.8,0,1.2,0.1c0.4,0,0.8,0.2,1.1,0.3c0.4,0.1,0.7,0.3,1,0.5c0.3,0.1,0.6,0.4,0.8,0.5c0.2,0.2,0.5,0.3,0.6,0.5
				c0.2,0.2,0.3,0.3,0.4,0.5c0.2,0.3,0.3,0.4,0.3,0.4s-0.2-0.1-0.5-0.3c-0.1-0.1-0.3-0.2-0.5-0.3c-0.2-0.1-0.5-0.2-0.7-0.3
				c-0.3-0.1-0.5-0.3-0.8-0.4c-0.3-0.1-0.6-0.2-1-0.3c-0.3-0.1-0.7-0.2-1-0.2c-0.4-0.1-0.7-0.1-1.1-0.1c-0.4,0-0.7,0-1.1,0
				c-0.4,0.1-0.7,0.1-1.1,0.1c-0.7,0.1-1.3,0.3-1.9,0.5C204.3,384.7,203.5,385,203.5,385z"/>
		</g>
		<path fill-rule="evenodd" clip-rule="evenodd" fill="#48392C" d="M218.4,391.2c-1.1-21.5-10.1-27.2-19.7-26.1
			c-5.6-1.6-17.5,0.1-17.5,19.2c2.3-4,5.2-7,8.1-9.3c3.8,8.9,16,17.7,26.7,19.4c-3.3-2.1-5.8-4.6-7.9-7.2
			C212.3,388.9,214.9,391.9,218.4,391.2z"/>
		<g>
			<g>
				<path fill="#064C7D" d="M212,490.5c0,0-6,1.4-14.3-6.2c-0.6-0.6,0-1.4,1-1.4l53.5-0.8l-7.8,7.9L212,490.5z"/>
				<path fill="#FFFFFF" d="M210.9,488.9c0.3,0,0.5,0,0.5,0l0.3-0.1l0.3,0l31.2-0.4l4.5-4.6l-43.8,0.6c-1.1,0-1.7,1-0.9,1.5
					C207,488.7,209.9,488.9,210.9,488.9L210.9,488.9z"/>
			</g>
			<g>
				<path fill="#005A96" d="M208.5,491h46c1.9,0,3.5-1.5,3.5-3.5v-25.9c0-1.9-1.5-3.5-3.5-3.5h-46c-1.9,0-3.5,1.5-3.5,3.5v25.9
					C205,489.5,206.6,491,208.5,491z"/>
			</g>
			<path opacity="0.23" fill="#005A96" d="M253.1,458.3h-4c0,0.2,0.1,0.3,0.1,0.5c0,15.4-12.5,27.9-27.9,27.9h-16.2
				c0.3,2.4,2.3,4.3,4.8,4.3h43.2c2.7,0,4.8-2.2,4.8-4.8v-23.1C257.9,460.4,255.7,458.3,253.1,458.3z"/>
		</g>
		<path fill="#F4AE94" d="M261.1,468.5c0,0-2.4,2-4.4,1.7c-2.1-0.3-3.1-0.3-7.1,1.7c-4,1.9-7.1,1.3-7.1,1.3s0.8,4.6,7.2,1.9
			c3.9-1.7-3.6,8.7-6.2,11.5c0,0-0.2,2.9,3.6,1.3c2.3-1,2.5-0.2,3.9-0.2c-1.3,1.2-2.3,2.5,0.5,2.2c4.2-0.4,15.5-8.4,15.1-13.4
			c0.6-1.7,0.6-3.4-0.3-5C263.2,466.4,261.1,468.5,261.1,468.5z"/>
		<g opacity="0.26">
			<path fill="#2AC1D6" d="M227.9,428.6c0,0-0.8,1.8-1.5,4.8c-0.2,0.7-0.3,1.5-0.5,2.4c-0.1,0.9-0.3,1.8-0.4,2.7
				c-0.1,0.9-0.2,1.9-0.3,2.9c-0.1,1-0.1,2-0.1,3c0,1,0.1,2,0.1,3c0,1,0.2,2,0.3,2.9c0.1,0.9,0.3,1.8,0.4,2.7
				c0.1,0.9,0.3,1.7,0.5,2.4c0.2,0.7,0.3,1.4,0.5,2c0.2,0.6,0.3,1.1,0.5,1.5c0.3,0.9,0.4,1.3,0.4,1.3s-0.2-0.5-0.5-1.3
				c-0.1-0.4-0.3-0.9-0.5-1.5c-0.2-0.6-0.4-1.3-0.6-2c-0.2-0.7-0.4-1.5-0.6-2.4c-0.2-0.9-0.4-1.8-0.5-2.7c-0.1-0.9-0.3-1.9-0.4-2.9
				c-0.1-1-0.2-2-0.2-3c0-1,0-2,0-3c0-1,0.1-2,0.2-3c0.1-1,0.2-1.9,0.3-2.7c0.2-0.9,0.3-1.7,0.4-2.4c0.6-3,1.4-5,1.4-5L227.9,428.6z
				"/>
		</g>
	</g>
</g>
<g>
	<g>
		<path fill="#122129" d="M309.3,612.4c0.2,0,0.4-0.1,0.6-0.1c0.1,0,0.1,0,0.2,0c11.9-1.6,46.2,7.6,46.2,7.6s-40.4-10.9-48.7-7
			c0.4-0.2,0.8-0.3,1.3-0.4C309,612.5,309.1,612.4,309.3,612.4z"/>
		<path fill="#122129" d="M370.8,634.2l10.3,5.8l-6.3-3.6C373.8,635.7,372.5,634.9,370.8,634.2z"/>
		<polygon opacity="0.25" fill="#122129" points="307.5,612.9 307.5,612.9 307.5,612.9 		"/>
		<path fill="#122129" d="M309.9,612.3c-0.2,0-0.4,0.1-0.6,0.1C309.5,612.4,309.7,612.3,309.9,612.3z"/>
		<path opacity="0.25" fill="#122129" d="M309.9,612.3c-0.2,0-0.4,0.1-0.6,0.1C309.5,612.4,309.7,612.3,309.9,612.3z"/>
		<path fill="#122129" d="M310,612.3c-0.1,0-0.1,0-0.2,0C309.9,612.3,310,612.3,310,612.3z"/>
		<path opacity="0.25" fill="#122129" d="M310,612.3c-0.1,0-0.1,0-0.2,0C309.9,612.3,310,612.3,310,612.3z"/>
		<path fill="#122129" d="M356.2,619.9c0,0-34.3-9.3-46.2-7.6c3.8-0.4,8.9,1.3,15.9,6.7c12.2,9.5,26.8,8,44.9,15.3
			c1.7,0.7,3,1.5,4,2.3l6.3,3.6l0-22.3L356.2,619.9z"/>
		<path fill="#0F1B21" d="M356.2,619.9c0,0-34.3-9.3-46.2-7.6c3.8-0.4,8.9,1.3,15.9,6.7c12.2,9.5,26.2,9.4,44.3,16.7
			c1.7,0.7,5.1,1.5,6.1,2.4l4.8,2.1l0-22.3L356.2,619.9z"/>
		<path fill="#122129" d="M307.5,612.9L307.5,612.9c0.4-0.2,0.9-0.3,1.3-0.4C308.4,612.6,307.9,612.7,307.5,612.9z"/>
		<path opacity="0.25" fill="#122129" d="M307.5,612.9L307.5,612.9c0.4-0.2,0.9-0.3,1.3-0.4C308.4,612.6,307.9,612.7,307.5,612.9z"
			/>
		<path fill="#122129" d="M309.3,612.4c-0.1,0-0.3,0.1-0.4,0.1C309,612.5,309.1,612.4,309.3,612.4z"/>
		<path opacity="0.25" fill="#122129" d="M309.3,612.4c-0.1,0-0.3,0.1-0.4,0.1C309,612.5,309.1,612.4,309.3,612.4z"/>
		<polygon fill="#F59A78" points="369.8,634.4 383.1,640.5 383.2,649.4 366.9,649.4 		"/>
		<path fill="#122129" d="M310,612.3c-0.1,0-0.1,0-0.2,0c-0.2,0-0.4,0.1-0.6,0.1c-0.1,0-0.3,0.1-0.4,0.1c-0.5,0.1-0.9,0.2-1.3,0.4
			c-0.1,0-0.2,0.1-0.3,0.1c-7.7,4.3-7,22.6,14.1,31c13.3,5.3,46.1,6.9,46.1,6.9l3.3-16.8c-18.1-7.3-38.4-15-44-17.3
			C318.7,613.4,313.9,611.8,310,612.3z"/>
		<path fill="#122129" d="M391.4,634.2l-10.3,5.8l6.3-3.6C388.4,635.7,389.7,634.9,391.4,634.2z"/>
		<path fill="#122129" d="M406,619.9c0,0,34.3-9.3,46.2-7.6c-3.8-0.4-8.9,1.3-15.9,6.7c-12.2,9.5-26.8,8-44.9,15.3
			c-1.7,0.7-3,1.5-4,2.3l-6.3,3.6l0-22.3L406,619.9z"/>
		<path fill="#0F1B21" d="M406,619.9c0,0,34.3-9.3,46.2-7.6c-3.8-0.4-8.9,1.3-15.9,6.7c-12.2,9.5-26.2,9.4-44.3,16.7
			c-1.7,0.7-5.1,1.5-6.1,2.4l-4.8,2.1l0-22.3L406,619.9z"/>
		<path fill="#F59A78" d="M381.1,639.7c0,0,2.3-3.5,4.8-2.8c2.5,0.7,7.6,8.3,16.3,12.1c8.7,3.9,10.8,8,10.8,8s-0.8,1.7-4,0.6
			c-3.2-1.1-17-6.5-28.2-7.4C369.7,649.2,381.1,639.7,381.1,639.7z"/>
		<path fill="#E5B223" d="M402.2,649c-8.7-3.9-13.8-11.5-16.3-12.1c-2.4-0.6-4.6,2.5-4.8,2.8c1.7,0.7,4.4,2.1,5.7,4.7
			c1.3,2.7,1.5,5.4,1.5,7c9.2,1.9,18.2,5.4,20.7,6.3c3.2,1.1,4-0.6,4-0.6S410.9,652.8,402.2,649z"/>
		<polygon fill="#F4AE94" points="391.7,635.7 379.2,640.5 379.3,650.9 395.3,649.4 		"/>
		<path fill="#122129" d="M454.7,612.9c0.1,0,0.2,0.1,0.3,0.1c7.7,4.3,7,22.6-14.1,31c-13.3,5.3-46.1,6.9-46.1,6.9l-6.4-14.8
			c18.1-7.3,34-13.5,44.3-17.7C440.8,615.3,448,610.3,454.7,612.9z"/>
		<path fill="#F4AE94" d="M379.6,640.3c0,0-2.3-3.5-4.8-2.8c-2.5,0.7-7.6,8.3-16.3,12.1c-8.7,3.9-10.8,8-10.8,8s0.8,1.7,4,0.6
			c3.2-1.1,17-6.5,28.2-7.4C391.1,649.9,379.6,640.3,379.6,640.3z"/>
		<path fill="#FFCD31" d="M376.9,645.9c1.1-1.9,1.5-5.4,2.6-5.9c-0.7-0.7,0.1,0.3,0.1,0.3s-2.3-3.5-4.8-2.8
			c-2.5,0.7-7.6,8.3-16.3,12.1c-8.7,3.9-10.8,8-10.8,8s0.8,1.7,4,0.6c2.9-1,14.3-5.4,24.7-7C376.1,649.7,375.6,648,376.9,645.9z"/>
	</g>
	<g>
		<g>
			<path fill-rule="evenodd" clip-rule="evenodd" fill="#48392C" d="M369,487.5c0,0-10.2,3.8-12.3,21.9c-2.1,18,6.3,20.7-0.8,30.1
				c-7.1,9.4,2.1,10.5,8.4,11c6.3,0.5,43.1,2.4,47.6-2.1c4.4-4.4-5.8-11.2-7.6-15.2c-1.8-3.9,2.5-6.4-0.3-12.3S369,487.5,369,487.5z
				"/>
			<g>
				<path fill="#FFCD31" d="M421.3,553.8c-1.4-3.8-27.5-16.4-27.5-16.4l-11.7-8.7v0l0,0h0v0l-11.4,8.7c0,0-26.4,12.6-27.8,16.4
					c-1.4,3.8-14.4,44-10.9,47.8c3.5,3.7,25.3,19.8,25.3,19.8l24.9-17.4l24.9,17.4c0,0,21.8-16.1,25.3-19.8
					C435.7,597.9,422.8,557.6,421.3,553.8z"/>
				<g opacity="0.22">
					<path fill="#FFCD31" d="M421.3,553.8c-1.4-3.8-27.5-16.4-27.5-16.4l-11.7-8.7v0h0v0l-7.1,5.4l8.7,6.5c0,0,26.1,12.6,27.5,16.4
						c1.4,3.8,14.4,44,10.9,47.8c-2.2,2.3-11.5,9.5-18.2,14.6l3,2.1c0,0,21.8-16.1,25.3-19.8C435.7,597.9,422.8,557.6,421.3,553.8z"
						/>
					<path fill="#FFCD31" d="M372.1,607.3l-17.5,12.2c1.7,1.2,2.7,2,2.7,2l17.6-12.3L372.1,607.3z"/>
				</g>
				<g>
					<g>
						<path fill="#FFFFFF" d="M364.9,541.7c0,0,0.6,0.5,1.6,1.5c0.5,0.5,1.1,1.1,1.7,1.8c0.7,0.7,1.4,1.5,2.2,2.4
							c0.8,0.9,1.7,1.8,2.5,2.9c0.9,1,1.8,2.2,2.7,3.3c0.9,1.2,1.9,2.3,2.9,3.5c0.5,0.6,1,1.2,1.6,1.7c0.5,0.5,1.3,0.8,2,0.7
							c0.7,0,1.4-0.3,1.9-0.8c0.2-0.2,0.5-0.5,0.7-0.9l0.7-0.9c1-1.2,1.9-2.4,2.8-3.6c1.8-2.3,3.6-4.4,5.2-6.2
							c1.5-1.8,2.9-3.3,3.8-4.3c0.9-1,1.5-1.6,1.5-1.6l0.1,0.1c0,0-0.5,0.6-1.3,1.8c-0.8,1.1-2,2.7-3.4,4.6c-1.4,1.9-3.1,4.1-5,6.3
							c-1,1.1-1.9,2.3-2.9,3.5l-0.8,0.9l-0.4,0.4c-0.1,0.2-0.3,0.3-0.5,0.5c-0.7,0.6-1.6,0.8-2.4,0.8c-0.9,0-1.7-0.4-2.3-1
							c-0.5-0.6-1-1.2-1.5-1.8c-1-1.2-2.1-2.3-3.1-3.4c-1-1.1-2-2.1-2.9-3.1c-0.9-1-1.7-2-2.5-2.9c-0.8-0.9-1.5-1.7-2.1-2.5
							c-0.6-0.8-1.1-1.4-1.6-1.9C365.3,542.4,364.8,541.8,364.9,541.7L364.9,541.7z"/>
					</g>
					<path fill="#FFFFFF" d="M383.5,564.4c0.9,1.5-0.7,3.1-2.2,2.2c-0.1-0.1-0.3-0.2-0.3-0.3c-0.9-1.5,0.7-3.1,2.2-2.2
						C383.3,564.1,383.5,564.2,383.5,564.4z"/>
					<path fill="#FFFFFF" d="M383.6,571.9c0.9,1.5-0.7,3.1-2.2,2.2c-0.1-0.1-0.3-0.2-0.3-0.3c-0.9-1.5,0.7-3.1,2.2-2.2
						C383.3,571.6,383.5,571.7,383.6,571.9z"/>
				</g>
				<g opacity="0.57">
					<path fill="#FFCD31" d="M407.9,567.9c0,0,0.3,0.5,0.7,1.4c0.4,0.9,1.1,2.2,1.7,3.7c0.7,1.6,1.4,3.4,2.1,5.4
						c0.7,2,1.4,4.2,1.9,6.4c0.3,1.1,0.5,2.2,0.7,3.3c0.2,1.1,0.3,2.2,0.4,3.3c0.1,1.1,0,2.1,0,3.1c-0.1,0.5-0.1,1-0.2,1.4
						c-0.1,0.5-0.2,0.9-0.4,1.3c-0.2,0.4-0.3,0.8-0.5,1.1c-0.2,0.4-0.4,0.6-0.7,0.9c-0.2,0.3-0.5,0.5-0.7,0.6
						c-0.2,0.2-0.5,0.3-0.7,0.4c-0.4,0.2-0.8,0.3-1.1,0.4c-0.3,0.1-0.4,0.1-0.4,0.1s0.1,0,0.4-0.1c0.2-0.1,0.6-0.2,1-0.5
						c0.2-0.1,0.5-0.2,0.7-0.5c0.2-0.2,0.5-0.4,0.7-0.7c0.2-0.3,0.4-0.5,0.6-0.9c0.2-0.3,0.3-0.7,0.5-1.1c0.2-0.4,0.2-0.8,0.3-1.2
						c0.1-0.4,0.1-0.9,0.1-1.4c0-1,0-2-0.1-3c-0.1-1-0.2-2.1-0.4-3.2c-0.2-1.1-0.4-2.2-0.7-3.3c-0.5-2.2-1.1-4.4-1.8-6.4
						c-0.7-2-1.3-3.9-1.9-5.5C408.8,570,407.9,567.9,407.9,567.9z"/>
				</g>
				<g opacity="0.57">
					<path fill="#FFCD31" d="M356.9,567.9c0,0-0.8,2.1-2,5.3c-0.6,1.6-1.2,3.5-1.9,5.5c-0.7,2-1.3,4.2-1.8,6.4
						c-0.3,1.1-0.5,2.2-0.7,3.3c-0.2,1.1-0.4,2.2-0.4,3.2c-0.1,1-0.1,2.1-0.1,3c0,0.5,0.1,0.9,0.1,1.4c0.1,0.4,0.2,0.9,0.3,1.2
						c0.1,0.4,0.3,0.8,0.5,1.1c0.2,0.3,0.4,0.6,0.6,0.9c0.2,0.3,0.4,0.5,0.7,0.7c0.2,0.2,0.4,0.3,0.7,0.5c0.4,0.3,0.8,0.4,1,0.5
						c0.3,0.1,0.4,0.1,0.4,0.1s-0.1,0-0.4-0.1c-0.3-0.1-0.7-0.1-1.1-0.4c-0.2-0.1-0.5-0.2-0.7-0.4c-0.2-0.2-0.5-0.4-0.7-0.6
						c-0.2-0.3-0.5-0.5-0.7-0.9c-0.2-0.3-0.4-0.7-0.5-1.1c-0.2-0.4-0.3-0.9-0.4-1.3c-0.1-0.5-0.2-0.9-0.2-1.4c-0.1-1-0.1-2,0-3.1
						c0.1-1.1,0.2-2.2,0.4-3.3c0.2-1.1,0.4-2.2,0.7-3.3c0.6-2.2,1.2-4.4,1.9-6.4c0.7-2,1.5-3.9,2.1-5.4c0.7-1.6,1.3-2.8,1.7-3.7
						C356.6,568.4,356.9,567.9,356.9,567.9z"/>
				</g>
			</g>
			<g>
				<path fill="#EDA98F" d="M389.9,526.2l-7.8,9.8l-7.5-9.8l-3.9,11.3c5.7,10.5,11.4,9.5,11.4,9.5s6.3,1,11.7-9.5L389.9,526.2z"/>
				<path opacity="0.12" fill-rule="evenodd" clip-rule="evenodd" fill="#F4AE94" d="M371.3,535.7c3.2,2.6,7,4.2,9.9,4.2
					c3.5,0,7.9-2.4,11.4-5.8l-2.7-7.9l-7.8,9.8l-7.5-9.8L371.3,535.7z"/>
			</g>
			<path fill-rule="evenodd" clip-rule="evenodd" fill="#F4AE94" d="M381.2,489c-19.3,0-20.6,21.4-16.7,35.8
				c2,7.3,10.8,13.7,16.7,13.7c6,0,14.8-7,17.2-14.9C402.8,509.4,400.2,489,381.2,489z"/>
			<path fill-rule="evenodd" clip-rule="evenodd" fill="#48392C" d="M403.9,520.8c-2.1-5.2-3.5-12.6-4.7-18.2
				c-0.2-2.2-0.7-4.8-1.9-7.7c-4.1-9.7-19-16.3-28.4-7.5c-12.8,4.4-6.9,31.8-6.2,22c0.6-8.2,5.8-7.4,9.9-13.9
				c5.7,7.2,13.3,14.2,19.6,17c2.1,3,5.5,9,0.5,16.7c-2.5,3.8-0.4,10.4,4.7,8.3C402.6,535.4,406.4,526.9,403.9,520.8z"/>
		</g>
		<g>
			<path fill="#005A96" d="M418.8,625.7h-73.4c-1.6,0-2.8-1.3-2.8-2.8v-43.3c0-1.6,1.3-2.8,2.8-2.8h73.4c1.6,0,2.8,1.3,2.8,2.8v43.3
				C421.6,624.5,420.3,625.7,418.8,625.7z"/>
			<path opacity="0.19" fill="#005A96" d="M417.2,576.8h-2.7c-0.7,24-20.4,43.2-44.5,43.2h-27.4v1.3c0,2.4,2,4.4,4.4,4.4h70.2
				c2.4,0,4.4-2,4.4-4.4v-40.1C421.6,578.8,419.6,576.8,417.2,576.8z"/>
		</g>
	</g>
</g>
<g>
	<g>
		<path fill="#05476E" d="M544.7,510.8c0,0-3.7,5.6-6.2,36.2c-2.5,30.6-1.2,32.9,4,39.8c5.3,6.9,36.1,40.8,37,42.8
			c0.9,2,4.4,14.5,2.8,18.8s-5.6,6.9-4,8.2c1.6,1.3,11.6-0.1,12.5-3.1s3.4-14,4-18c0.6-4-2.5-6.6-4.7-6.6c0,0-9.6-15.1-12.8-27
			c-3.1-11.9-21.1-26.7-21.1-26.7s4.4-27.3,9-40.5c4.7-13.2-2.8-25.4-2.8-25.4L544.7,510.8z"/>
		<path fill="#F4AE94" d="M590.1,629.1c0,0-5,4.6-9.3,4.5c1.2,4.6,2.7,11.8,1.6,14.9c-1.6,4.3-5.6,6.9-4,8.2
			c1.6,1.3,11.6-0.1,12.5-3.1s3.4-14,4-18C595.4,631.7,592.3,629.1,590.1,629.1z"/>
		<path opacity="0.2" fill="#A16042" d="M590.1,629.1c0,0-9.6-15.1-12.8-27c-3.1-11.9-21.1-26.7-21.1-26.7s4.4-27.3,9-40.5
			c4.7-13.2-2.8-25.4-2.8-25.4l-17.7,1.3c0,0-0.2,0.3-0.6,1.2l15-1.1c0,0,7.5,12.2,2.8,25.4c-4.7,13.2-9,40.5-9,40.5
			s18,14.8,21.1,26.7c3.1,11.9,16.5,29.8,16.5,29.8c2.2,0,1.5-0.2,0.9,3.8c-0.6,4-3,15-4,18c-0.1,0.3-0.3,0.5-0.5,0.7
			c2-0.4,3.5-1.1,3.8-2.1c0.9-3,3.4-14,4-18C595.4,631.7,592.3,629.1,590.1,629.1z"/>
		<g>
			<path fill="#00507E" d="M586.4,505.7c0,0,9.6,8.7,4.9,31c-4.7,22.2-8.2,31.1-9.1,41.2c-0.9,10.1,1.2,22.7-3,33.6
				c-4.2,10.9-7,20.7-11.2,27.9c0,0,0.7,8.6,0.9,12.3c0.2,3.8,0.5,5.3-3.6,5.8c-4,0.5-12.2,0.3-10.5-3c1.7-3.3,4.6-8.4,6.8-16.3
				c2.2-7.9,4.7-40.2,4.7-57s-3.7-71.8-3.7-71.8L586.4,505.7z"/>
		</g>
		<path opacity="0.32" fill="#00507E" d="M586.4,505.7l-2.5,0.4c2.3,3,7.6,12.1,3.9,29.8c-4.7,22.2-8.2,31.1-9.1,41.2
			c-0.9,10.1,1.2,22.7-3,33.6c-4.2,10.9-7,20.7-11.2,27.9c0,0,0.7,8.6,0.9,12.3c0.2,3.8,0.5,5.3-3.6,5.8c-1.9,0.2-2.9,0.3-5.6,0
			c2.7,1.1,6.4,1.1,9.1,0.7c4-0.5,3.7-2,3.6-5.8c-0.2-3.8-0.9-12.3-0.9-12.3c4.2-7.2,7-17,11.2-27.9c4.2-10.9,2.1-23.5,3-33.6
			c0.9-10.1,4.4-19,9.1-41.2C595.9,514.5,586.4,505.7,586.4,505.7z"/>
		<path fill="#F4AE94" d="M561.2,639.3c-2.3,7.3-4.8,12.2-6.4,15.3c-1.7,3.3,6.4,3.5,10.5,3c4-0.5,3.7-2,3.6-5.8
			c-0.1-3.5-0.8-11.2-0.8-12.2C566.3,639.7,563.4,639.8,561.2,639.3z"/>
		<g opacity="0.24">
			<path fill="#F4AE94" d="M563.5,639.6c-0.8-0.1-1.6-0.2-2.3-0.3c0,0.1-0.1,0.3-0.1,0.4C561.9,639.7,562.8,639.6,563.5,639.6z"/>
			<path fill="#F4AE94" d="M568.8,651.8c-0.1-3.5-0.8-11.2-0.8-12.2c-0.9,0.1-2.2,0.1-3.6,0.1c0.1,1.3,0.7,8.7,0.8,12.1
				c0.2,3.8,0.5,5.3-3.6,5.8c-0.6,0.1,0.8,0.1-0.1,0.2c2.2,0.1,2.2,0,3.6-0.2C569.3,657,568.9,655.6,568.8,651.8z"/>
		</g>
		<path fill="#62B346" d="M590.3,629.1c0.6,7.8-0.9,14.3-3.2,18.6c-1.9,3.5-4.4,3.2-5.7,2.7c-1.8,3.2-4.5,5.2-3.2,6.3
			c1.6,1.3,11.6-0.1,12.5-3.1c0.9-3,3.4-14,4-18C595.4,631.8,592.5,629.3,590.3,629.1z"/>
		<g opacity="0.22">
			<path fill="#62B346" d="M590.3,629.1c0.1,1.3,0.1,2.6,0.1,3.8c1.5,1.1,2.8,3.1,2.4,5.8c-0.5,3.4-3,12-3.6,16.4
				c0.8-0.4,1.4-0.8,1.6-1.4c0.9-3,3.4-14,4-18C595.4,631.8,592.5,629.3,590.3,629.1z"/>
		</g>
		<path fill="#72BF44" d="M556.8,650.3c-1.1,1.6-1.5,3.1-2.1,4.2c-1.7,3.3,6.4,3.5,10.5,3c4-0.5,3.7-2,3.6-5.8c0-0.1,0-0.3,0-0.4
			C562.2,653.4,559.1,651.6,556.8,650.3z"/>
		<g opacity="0.22">
			<g>
				<path fill="#72BF44" d="M568.8,651.8c0-0.1,0-0.3,0-0.4c-1.2,0.4-2.4,0.6-3.5,0.8c0.2,3.4,0.2,4.7-3.6,5.2c-1,0.1-0.4,0.2-2,0.2
					c2.7,0.3,3.7,0.2,5.5,0C569.3,657,568.9,655.6,568.8,651.8z"/>
			</g>
		</g>
		<path fill="#48392C" d="M543.3,381.2c-6.2,9,1.8,21.2-4.1,33.3c-5.9,12.1-17.3,12.5-15.1,27.5c2.2,15-10.5,11.1-10.5,24.5
			c0,13.4,19.1,19.9,28.7,12.4c9.6-7.5,19,7.8,33.4,3.3c14.3-4.6,29-13.1,23.2-27.5c-5.9-14.4-8.3-22.6-3.1-40.9
			c5.3-18.3-1.2-28.8-8.6-29.8C579.7,383.2,562.1,354.1,543.3,381.2z"/>
		<path fill-rule="evenodd" clip-rule="evenodd" fill="#F5A487" d="M584.9,444.6c-8.1,2.2-0.3,20,2.9,28.4
			c3.2,8.1,9.8,25.3,13.7,23.8c3.9-1.5,0-19-1.9-27.9C597.7,460.3,592.6,442.5,584.9,444.6z"/>
		<path opacity="0.17" fill-rule="evenodd" clip-rule="evenodd" fill="#F5A487" d="M599.6,468.8c-1.9-8.6-7-26.3-14.7-24.2
			c-0.1,0-0.3,0.1-0.4,0.1c6.5,1.4,10.8,16.5,12.4,24.3c1.8,8.2,5.2,23.7,2.7,27.3c0.7,0.5,1.3,0.7,1.9,0.5
			C605.4,495.2,601.5,477.8,599.6,468.8z"/>
		<path fill-rule="evenodd" clip-rule="evenodd" fill="#F5A487" d="M546.3,444.6c8.1,2.2,0.4,20-2.9,28.4
			c-3.2,8.2-9.8,25.3-13.6,23.8c-3.9-1.5-0.1-19,1.8-27.9C533.5,460.3,538.6,442.5,546.3,444.6z"/>
		<path opacity="0.17" fill-rule="evenodd" clip-rule="evenodd" fill="#F5A487" d="M546.3,444.6c-0.5-0.1-1-0.2-1.5-0.2
			c6.4,3.4-0.8,20-3.9,28c-2.8,7.1-8.1,21.2-12,23.6c0.2,0.4,0.5,0.7,0.9,0.8c3.9,1.5,10.4-15.7,13.6-23.8
			C546.7,464.6,554.4,446.8,546.3,444.6z"/>
		<path fill-rule="evenodd" clip-rule="evenodd" fill="#72BF44" d="M598,460.2c-2.3-7.9-7.4-16.4-12.8-17.9c-8.7-5-24.6-5.4-35-1.9
			c-6.1,0.9-13.9,9.4-17,17c3.4,5,7.7,8.4,13.2,9.8c3.4,11.2,4.7,22.9,2.2,29.8c-3.6,9.8-6.3,15-7.1,21.1
			c19.8,5.3,38.4,3.6,50.6-0.1c-0.8-6.1-3.5-11.3-7.1-21.2c-2.6-7.2-0.9-18.1,2.1-29.4C591.8,465.9,595.4,463.5,598,460.2z"/>
		<path opacity="0.23" fill-rule="evenodd" clip-rule="evenodd" fill="#72BF44" d="M598,460.2c-2.3-7.9-7.4-16.4-12.8-17.9
			c-0.2-0.1-0.5-0.2-0.7-0.4c-3.5,41.5-29,58.4-39,63.5c-1.9,5-3.3,8.7-3.9,12.7c19.8,5.3,38.4,3.6,50.6-0.1
			c-0.8-6.1-3.5-11.3-7.1-21.2c-2.6-7.2-0.9-18.1,2.1-29.4C591.8,465.9,595.4,463.5,598,460.2z"/>
		<path fill-rule="evenodd" clip-rule="evenodd" fill="#EDA98F" d="M572.2,419.8h-10.5c0,0,0,0,0,0v17.8c0,2.6,2.4,4.7,5.3,4.7l0,0
			c2.9,0,5.3-2.1,5.3-4.7V419.8z"/>
		<path fill-rule="evenodd" clip-rule="evenodd" fill="#F4AE94" d="M529,495.8c0.9,1.6,4.1,3.4,6.7,2.4c3.5-1.4,6.8-5.2,9.4-8.4
			c4.3-5.3,16.8-17.9,14.9-20.6c-2.6-3.7-15.3,7.6-21.5,11.9C532.7,485.1,526.2,491.1,529,495.8z"/>
		<path opacity="0.17" fill-rule="evenodd" clip-rule="evenodd" fill="#F5A487" d="M538.8,481.4c3.9-2.5,15.1-10.7,20.1-12.2
			c-0.1-0.8,0.8-1,1.4-1.1c1.2-0.1-2.6,0.4-3.1,0.5c-4.8,1.2-13.8,9-18.7,12.5c-3.3,2.3-6.9,5.3-8.7,8.3
			C531.6,486.5,535.3,483.6,538.8,481.4z"/>
		<g>
			<g>
				<path fill="#005A96" d="M571.4,477.3h-11.1c-1,0-1.8-0.8-1.8-1.8v-25.4c0-1,0.8-1.8,1.8-1.8h11.1c1,0,1.8,0.8,1.8,1.8v25.4
					C573.2,476.5,572.4,477.3,571.4,477.3z"/>
			</g>
			<path opacity="0.24" fill="#005A96" d="M572.4,448.7c-0.5,5.8-2.8,17.9-13.9,21.7v4.9c0,1.1,0.9,2,1.9,2h10.9
				c1.1,0,1.9-0.9,1.9-2v-24.9C573.2,449.7,572.9,449,572.4,448.7z"/>
		</g>
		<path fill-rule="evenodd" clip-rule="evenodd" fill="#F4AE94" d="M593.1,481.1c-4.9-3.4-13.9-11.2-18.7-12.5
			c-0.7-0.9-0.8-2.1-0.7-3.4c0.3-2.5-0.2-3.2-1.6-5.2c-1.3-1.8-3.1-1.2-1.6,0.4c2.3,2.5,2,5.3,1.6,3.9c-0.5-1.8-1.5-2.9-3.2-3.4
			c-2.2-0.7-3.3,0.8-2.3,0.8c1,0,1.8,0,2.6,0.9c1.1,1.2,1.3,3.8,0.8,2.7c-0.6-1-0.8-1.6-2.4-2.1c-2.1-0.6-3.1,0.4-2.2,0.6
			c1.3,0.3,2.1,0.6,2.8,1.6c0.8,1.4,0.2,1.5-0.8,0.9c-2.3-1.5-4.6-0.4-3,0.1c1.7,0.4,2.8,2.6,2.9,4.4c0.2,4.4,3.7,1.5,6.7,4.2
			c3.5,4.9,9.7,11.4,12.5,14.8c2.6,3.1,5.9,7,9.4,8.4c2.5,1,5.7-0.8,6.7-2.4C605.2,491.1,598.8,485.1,593.1,481.1z"/>
		<g opacity="0.21">
			<path fill-rule="evenodd" clip-rule="evenodd" fill="#F4AE94" d="M602.7,491.2c-0.1,0.4-0.2,0.8-0.4,1.2c-0.9,1.6-4,3.6-6.6,2.6
				c-3.5-1.3-7-5-9.6-8.1c-2.9-3.3-8-8-11.6-12.8c-2.2-1.9-4.1-1-5.4-2c0,0-1.8-1.3-1.8-1.3c0.2,4.4,3.7,1.5,6.7,4.2
				c3.5,4.9,9.7,11.4,12.5,14.8c2.6,3.1,5.9,7,9.4,8.4c2.5,1,5.7-0.8,6.7-2.4C603.3,494.3,603.3,492.8,602.7,491.2z"/>
		</g>
		<path opacity="0.17" fill-rule="evenodd" clip-rule="evenodd" fill="#F5A487" d="M561.7,419.8v15.8c1.7,0.8,3.5,1.2,5,1.2
			c1.7,0,3.6-0.6,5.5-1.6v-15.5L561.7,419.8C561.7,419.8,561.7,419.8,561.7,419.8z"/>
		<path fill-rule="evenodd" clip-rule="evenodd" fill="#F4AE94" d="M566.8,385.5c-17.9,0-19.1,21-15.5,35.1
			c1.9,7.1,10,13.4,15.5,13.4c5.6,0,13.7-6.9,15.9-14.6C586.8,405.6,584.4,385.5,566.8,385.5z"/>
		<path fill="#48392C" d="M572.6,384.1c0,0,7.1,30.4,13.9,33.4C593.3,420.4,583.1,381.5,572.6,384.1z"/>
	</g>
</g>
<g>
	<path fill-rule="evenodd" clip-rule="evenodd" fill="none" stroke="#D42F2F" stroke-width="15" stroke-miterlimit="10" d="
		M410.2,97c-3.8-2.9-8.3-5.2-13.2-6.5c-4.9-1.3-9.9-1.6-14.7-1c-9.9,1.3-19,6.5-25.1,14.5c-2.9,3.8-5.2,8.3-6.5,13.2
		c-1.3,4.9-1.6,9.9-1,14.7c1.3,9.9,6.5,19,14.5,25.1c3.8,2.9,8.3,5.2,13.2,6.5c4.9,1.3,9.9,1.6,14.7,1c9.9-1.3,19-6.5,25.1-14.5
		c2.9-3.8,5.2-8.3,6.5-13.2c1.3-4.9,1.6-9.9,1-14.7C423.4,112.2,418.1,103.1,410.2,97z"/>
	<line fill="none" stroke="#D42F2F" stroke-width="15" stroke-miterlimit="10" x1="361.3" y1="153.7" x2="413.2" y2="101.8"/>
</g>
<ellipse opacity="0.37" fill="#0173B7" cx="385.2" cy="657.9" rx="212.3" ry="33.7"/>
</svg>
